HIERARCHY
ROOT Hips
{
  OFFSET 24.5417 97.4488 -343.983
  CHANNELS 6 Xposition Yposition Zposition Zrotation Xrotation Yrotation
  JOINT ToSpine
  {
    OFFSET -0.0105055 1.38907 -7.13956
    CHANNELS 3 Zrotation Xrotation Yrotation
    JOINT Spine
    {
      OFFSET 0.0105055 10 1
      CHANNELS 3 Zrotation Xrotation Yrotation
      JOINT Spine1
      {
        OFFSET 0 12 1.60637
        CHANNELS 3 Zrotation Xrotation Yrotation
        JOINT Neck
        {
          OFFSET 0 27 2.26658
          CHANNELS 3 Zrotation Xrotation Yrotation
          JOINT Head
          {
            OFFSET 0 9 2.12705
            CHANNELS 3 Zrotation Xrotation Yrotation
            End Site
            {
              OFFSET 0 11 2
            }
          }
        }
        JOINT LeftShoulder
        {
          OFFSET 8 19.6109 2.86452
          CHANNELS 3 Zrotation Xrotation Yrotation
          JOINT LeftArm
          {
            OFFSET 12 1 0.681055
            CHANNELS 3 Zrotation Xrotation Yrotation
            JOINT LeftForeArm
            {
              OFFSET 19 0 -1.52608
              CHANNELS 3 Zrotation Xrotation Yrotation
              JOINT LeftHand
              {
                OFFSET 23 0 0
                CHANNELS 3 Zrotation Xrotation Yrotation
                End Site
                {
                  OFFSET 10 0 0
                }
              }
            }
          }
        }
        JOINT RightShoulder
        {
          OFFSET -8 19.6109 2.86452
          CHANNELS 3 Zrotation Xrotation Yrotation
          JOINT RightArm
          {
            OFFSET -12 1 0.681055
            CHANNELS 3 Zrotation Xrotation Yrotation
            JOINT RightForeArm
            {
              OFFSET -19 0 -1.52608
              CHANNELS 3 Zrotation Xrotation Yrotation
              JOINT RightHand
              {
                OFFSET -23 0 0
                CHANNELS 3 Zrotation Xrotation Yrotation
                End Site
                {
                  OFFSET -10 0 0
                }
              }
            }
          }
        }
      }
    }
  }
  JOINT LeftUpLeg
  {
    OFFSET 9 -7.17245 0
    CHANNELS 3 Zrotation Xrotation Yrotation
    JOINT LeftLeg
    {
      OFFSET 0 -44.1113 0
      CHANNELS 3 Zrotation Xrotation Yrotation
      JOINT LeftFoot
      {
        OFFSET 0 -36.1829 0
        CHANNELS 3 Zrotation Xrotation Yrotation
        JOINT LeftToeBase
        {
          OFFSET 0 -4.84184 13
          CHANNELS 3 Zrotation Xrotation Yrotation
          End Site
          {
            OFFSET 0 1 6
          }
        }
      }
    }
  }
  JOINT RightUpLeg
  {
    OFFSET -9 -7.17245 0
    CHANNELS 3 Zrotation Xrotation Yrotation
    JOINT RightLeg
    {
      OFFSET 0 -44.0551 0
      CHANNELS 3 Zrotation Xrotation Yrotation
      JOINT RightFoot
      {
        OFFSET 0 -36.1469 0
        CHANNELS 3 Zrotation Xrotation Yrotation
        JOINT RightToeBase
        {
          OFFSET 0 -4.92256 13
          CHANNELS 3 Zrotation Xrotation Yrotation
          End Site
          {
            OFFSET 0 1 6
          }
        }
      }
    }
  }
}
MOTION
Frames:	21
Frame Time:	0.0333333
26.9389 93.7771 -64.0598 -11.0281 1.18641 2.43963 0 0 0 13.6785 3.51272 9.36098 -8.87785 3.88262 10.8755 15.0284 -19.399 -9.69182 -7.20239 8.92727 -4.89394 -20.3994 2.77881 -6.82033 -47.6214 13.3007 43.317 40.4534 -13.0083 -104.788 -9.68271 0.726991 -8.56733 19.6138 5.00677 15.5043 45.7733 8.32085 9.31412 -3.26292 -0.829468 104.248 2.84966 0.182586 7.33068 3.83116 -32.3246 16.833 -2.02259 26.8684 -11.129 18.1716 12.7288 -2.04379 1.19382 -14.591 -1.88122 -2.36533 22.6004 -5.31556 -3.78315e-008 45.5959 -1.60751 -19.6826 -5.97696 -1.03775 4.35319 -16.7131 -6.18152 
28.6913 92.4618 -54.6401 -8.97924 0.666528 3.02316 0 0 0 8.7616 4.72019 7.38276 -7.68118 2.53576 8.84994 18.4609 -18.0934 -7.28919 -7.62404 7.005 -2.05993 -24.1313 3.1417 -6.81505 -44.7306 8.26299 34.9492 44.1163 -14.5472 -104.523 -11.2784 0.720698 -7.28909 23.7541 5.69158 15.305 46.9212 9.30023 3.8685 -7.26222 -0.910845 97.1106 5.2292 0.304874 6.66878 1.75024 -32.1594 19.9371 4.86717e-007 43.9822 -12.7644 21.896 -7.87562 1.52576 1.07021 -3.66445 -3.98928 -4.56676 14.9143 -4.05404 4.2406e-007 63.8216 -13.6823 -29.4857 -10.376 -2.73735 3.89303 -14.568 -4.74006 
30.5416 90.6237 -45.8116 -3.1388 -0.738635 5.76396 0 0 0 -1.42141 7.64539 4.58258 -4.12611 2.41046 5.37536 19.2417 -20.2375 -3.20142 -5.09363 6.76677 0.770361 -28.5741 3.19308 -5.69175 -38.9809 5.73771 17.3417 41.2382 -14.0907 -105.521 -12.2706 0.593928 -5.52107 27.1831 6.43969 15.6711 47.7449 7.99238 -2.60344 -9.07894 -0.317094 91.9836 2.98232 0.145534 5.58627 -5.54713 -26.2367 17.1159 -1.16434e-006 50.4693 -13.0593 20.5758 -17.37 3.17644 1.5699 -5.08705 -6.30354 -10.2895 6.31468 -2.30561 5.56836e-006 83.7375 -18.7757 -33.312 -18.7284 -5.64897 3.76029 -13.9984 -5.94608 
32.5768 89.34 -37.4717 -0.341728 0.307313 6.6883 0 0 0 -4.8219 8.92255 2.53468 -5.36827 2.1111 3.1714 20.0065 -20.3809 0.964395 -4.81655 6.32548 4.57082 -27.77 3.15653 -5.79638 -36.1827 3.58388 -2.15583 37.6923 -12.8977 -106.113 -11.9978 0.574564 -5.4635 26.9669 6.28877 15.3453 52.3889 4.30989 -12.3044 -8.89367 -0.341212 92.1794 3.74991 0.223752 6.82699 -9.10927 -20.9365 18.249 1.50395e-006 52.7427 -15.9808 23.6257 -25.5358 5.42682 1.47638 -1.74286 -6.07895 -11.6754 -7.58426 3.26084 180 80.581 164.539 -34.9402 -23.4155 -7.46318 3.97787 -14.9839 -5.85789 
34.4478 88.7857 -28.8771 -2.82001 2.15795 8.6239 0 0 0 -3.71632 8.42402 -0.398417 -4.79177 1.30176 -0.0677271 20.7218 -18.464 4.83853 -6.09921 6.43765 8.93619 -26.2608 3.13953 -6.16169 -32.4309 0.162767 -19.9073 35.5466 -12.3057 -106.609 -11.7855 0.603026 -5.8376 25.1918 5.40838 13.6127 55.286 2.817 -22.0371 -8.12579 -0.74309 95.19 4.83731 0.320234 7.57053 -6.64577 -15.5278 20.2404 9.91301e-007 52.3031 -20.1267 28.1466 -30.4034 7.79373 1.59391 -3.63499 -6.50955 -5.49471 -22.9075 8.47595 -180 74.0145 163.096 -34.8609 -25.1407 -8.00936 4.23922 -16.0628 -4.77633 
36.98 89.5136 -19.5365 -6.48286 2.07994 15.4877 0 0 0 -1.72717 9.66616 -6.21001 -2.23819 -0.428826 -6.43329 21.2118 -16.2825 9.44194 -5.94155 7.24352 13.6624 -21.5086 2.96402 -7.09633 -27.5483 -3.02437 -28.999 30.5234 -11.9433 -109.341 -10.5307 0.566668 -6.14308 25.0809 5.38943 13.6106 53.9073 2.27378 -32.194 -9.27966 -1.37679 98.3656 6.09417 0.370321 6.94824 -3.37882 -7.34149 18.2948 -6.75624e-008 48.2749 -23.1745 27.6703 -29.8296 7.50604 2.12996 -8.39102 -9.38228 -0.350791 -33.008 9.05228 180 78.1352 159.187 -32.2408 -27.5043 -8.09209 3.89034 -14.589 -5.899 
40.6176 91.3898 -9.40951 -9.2416 0.479519 21.8164 0 0 0 -2.69311 9.46171 -10.0974 5.52679 2.31974 -11.8944 20.2293 -17.3475 13.5839 -8.17457 7.58158 17.7237 -14.191 2.67152 -9.09809 -29.3892 -4.55192 -34.2564 31.8493 -13.3227 -110.352 -7.7766 0.297062 -4.36851 21.8584 4.54426 12.5038 51.8675 1.41787 -39.4309 -11.8067 -2.07956 99.8482 6.49234 0.418664 7.37148 -0.274793 2.80796 14.901 -1.14259e-007 39.5454 -23.2972 23.3828 -19.0793 3.98342 2.09401 -23.0609 -13.9922 2.38739 -37.7872 9.67833 180 89.7852 159.079 -28.3527 -25.9433 -6.66008 3.61376 -13.338 -5.58899 
45.0078 93.5109 1.52944 -12.5323 -0.636719 25.2879 0 0 0 -1.49962 6.82341 -12.8129 11.4482 5.80807 -15.9956 16.839 -20.9931 17.2438 -9.53 10.7134 20.4259 -9.66781 2.18577 -9.28191 -29.7038 -5.93833 -37.3232 25.5163 -11.2254 -112.187 -8.36174 0.466606 -6.3766 18.8322 3.96633 12.0298 49.2281 1.02063 -44.8476 -12.8746 -2.53191 100.939 6.68062 0.462683 7.91477 3.85114 12.5934 11.1027 -0.945143 27.381 -24.0743 18.86 -1.1934 0.198215 1.55677 -33.7345 -12.3624 5.57355 -39.304 11.3254 4.5954e-007 72.9116 -19.4375 -24.3548 -22.2005 -4.84872 2.807 -9.88832 -4.36503 
49.555 94.3756 12.8387 -14.9113 0.564278 26.2557 0 0 0 -1.31507 2.02805 -13.684 15.1655 7.17152 -17.6187 12.7904 -22.0976 18.8814 -10.4903 12.8658 21.7139 -6.7229 1.99215 -10.2719 -27.283 -6.28822 -38.9124 22.3552 -10.3452 -113.589 -8.02983 0.372603 -5.30484 15.0689 3.3592 11.7354 48.572 0.681245 -50.346 -12.4758 -2.63494 101.738 6.68311 0.534328 9.13212 5.56341 18.0732 9.28313 -0.727884 21.5439 -23.6113 18.7941 8.30484 -1.37676 1.67071 -19.0649 -5.0896 6.325 -40.4133 12.9931 9.16936e-008 54.2436 -9.38874 -24.3779 -18.0559 -3.93123 3.29133 -11.7915 -6.60177 
53.8471 93.9494 23.7244 -14.7122 2.7609 27.9886 0 0 0 -3.49198 -2.95295 -14.5074 16.2271 8.69618 -18.257 11.5919 -21.1405 18.9108 -11.2546 13.0371 22.0307 -3.14374 1.46572 -9.50617 -27.4101 -3.67277 -42.0812 22.3174 -10.1975 -113.331 -7.77342 0.39304 -5.78021 13.4127 2.986 11.0514 49.9044 0.686019 -53.5112 -12.6191 -2.86577 102.589 5.97718 0.532466 10.1722 3.45726 21.4704 8.04768 1.46908 21.7521 -16.1618 22.0137 5.33884 -1.03915 1.61158 -19.3789 -4.13635 3.08069 -41.0768 12.2562 1.18165e-008 37.9795 -0.541236 -18.6819 -11.7636 -1.94164 3.83041 -14.3345 -6.84411 
57.9538 92.8685 33.8749 -12.7877 2.60122 29.3027 0 0 0 -4.91285 -3.23016 -14.6152 15.3626 8.30982 -17.676 12.258 -17.9891 18.3252 -11.7534 12.0953 22.1567 -2.86444 1.46562 -9.7953 -27.0414 0.458311 -41.6107 20.4127 -8.43668 -111.516 -7.37901 0.437137 -6.77122 14.3308 3.19344 11.4461 49.7401 0.374478 -53.9537 -17.7426 -4.19612 102.881 6.25604 0.533543 9.73971 1.18972 26.3149 6.03835 1.56546 25.3309 -6.62495 24.0465 -1.72568 0.367564 1.55031 -18.1003 -3.92024 0.203269 -38.6169 12.7604 2.80474e-008 27.1742 2.09784 -19.7326 -9.70661 -1.69211 3.70265 -13.7195 -8.03435 
61.7877 91.6649 43.7675 -10.3872 1.83208 29.6789 0 0 0 -6.46296 -2.18951 -13.2446 15.3661 7.80865 -16.3551 8.74673 -16.5358 17.7585 -8.91677 10.8001 20.3981 -8.13236 2.0307 -9.41757 -25.5841 4.94838 -39.2647 20.7579 -7.59819 -109.232 -7.65668 0.452877 -6.75994 15.1347 3.18649 10.9208 49.4065 -0.089655 -50.7044 -19.7872 -4.52791 102.376 7.14755 0.635684 10.1517 -0.327651 27.1345 4.02466 -1.1519e-007 36.9722 -4.45125 21.9761 -0.338157 0.0656582 1.5846 -18.5659 -4.14587 -0.726613 -36.0038 13.6433 1.50691e-008 25.7876 0.557397 -22.2284 -10.3954 -2.04757 3.60955 -13.2348 -8.60548 
65.5632 90.8343 52.6997 -9.36337 -0.188343 28.8188 0 0 0 -3.69941 1.04733 -10.6681 13.0819 6.54321 -13.8193 6.78008 -15.5954 17.1128 -8.06779 8.79362 19.2838 -14.3029 2.62239 -8.80902 -25.4261 9.80636 -33.9231 19.5774 -6.18864 -106.863 -8.07246 0.468352 -6.63005 18.0798 3.84364 11.9751 47.3418 -2.18662 -45.7078 -23.7171 -5.41054 102.113 3.0974 0.252087 9.3035 0.38725 23.6425 7.26791 1.47695e-007 53.612 -12.4271 22.1422 8.38099 -1.64271 1.7615 -23.1038 -4.71763 1.26441 -34.2406 14.3933 4.16453e-008 33.4303 6.9419 -18.1174 -2.62282 -0.418238 3.14463 -11.1645 -6.03723 
68.8831 87.9872 61.5298 -10.7542 -2.01901 28.7786 0 0 0 2.49321 3.79911 -7.79954 8.3027 3.79314 -9.92345 4.698 -15.6682 15.3589 -8.33532 6.10763 17.3055 -24.0845 2.82379 -5.78886 -24.2176 15.7061 -30.756 18.4134 -3.53046 -100.48 -8.84271 0.499411 -6.45217 22.8954 5.02152 13.5779 42.5496 -4.82855 -39.1656 -22.7231 -5.19287 102.195 2.52977 0.180022 8.13945 4.66121 15.6167 8.67465 -4.106e-006 76.2357 -16.5835 25.4822 4.62018 -1.04522 1.80873 -25.4022 -3.12249 4.62714 -34.3644 15.7239 2.90342e-007 48.8279 5.9315 -7.71075 -13.3671 -0.904904 3.63162 -13.3673 -7.87016 
72.1229 86.2117 69.1759 -13.8527 -4.70641 31.0258 0 0 0 11.1545 6.41811 -6.27347 3.04935 3.81141 -7.34336 2.94971 -20.6926 14.0102 -6.4971 5.62589 14.9617 -28.8117 3.70997 -7.10252 -32.8441 14.1408 -17.4654 24.4586 -3.44794 -97.5321 -12.7157 0.51358 -4.60681 26.2458 6.0161 14.9217 37.7393 -5.47117 -24.6359 -19.2248 -3.90462 101.049 -0.430446 -0.0271699 7.22343 10.3846 2.47234 6.52665 -180 81.3203 165.327 27.5428 -0.763695 0.18718 1.73839 -24.5168 -1.76581 7.22837 -30.2385 9.78962 6.45761e-008 55.7972 6.74734 -12.466 -22.908 -2.53541 3.68996 -13.6707 -6.64816 
75.7063 85.6582 76.3443 -14.2113 -4.52165 35.4671 0 0 0 12.8714 8.76991 -4.91059 1.87054 3.53176 -5.62611 1.88872 -25.9348 12.4594 -4.81293 6.16744 12.72 -30.8293 3.54488 -6.08911 -41.3826 10.297 -1.75741 26.6751 -4.21542 -98.3239 -12.4208 0.586624 -5.38692 26.14 6.31438 15.88 32.0827 -8.60901 -7.99242 -20.9512 -4.67876 102.026 0.638542 0.0312597 5.60527 8.8385 -16.0826 1.90062 -180 65.7189 166.382 27.6837 -5.30966 1.30917 1.45193 -16.1696 -3.623 5.37409 -24.7243 3.78511 -2.62597e-008 57.0565 6.66244 -14.1865 -29.4536 -3.74667 4.28983 -16.4252 -6.18574 
79.5909 85.6405 83.4937 -14.3063 -1.34167 37.692 0 0 0 12.2289 9.14948 -1.66604 -0.179855 2.07186 -1.51601 2.88887 -26.515 9.08082 -6.06946 6.25824 10.0412 -30.9342 3.26839 -5.31881 -44.8154 7.27929 16.3618 22.2652 -6.08039 -104.505 -13.357 0.920248 -7.847 25.0296 6.06972 15.7661 26.0125 -14.2429 5.50979 -17.5765 -4.42195 103.68 0.388473 0.0163718 4.82646 3.63727 -35.7909 -0.356177 180 62.0754 170.483 30.4382 -5.95225 1.62067 1.68293 -21.1167 -4.3486 3.44068 -20.3247 1.33907 1.84787e-008 55.4085 5.32401 -15.6443 -34.4616 -4.87937 4.34721 -16.5146 -4.66236 
84.9942 86.8753 91.7533 -12.0179 0.248659 37.983 0 0 0 12.2139 11.3876 2.54033 -4.66007 0.127541 4.11188 2.56201 -25.3733 4.18391 -6.57564 6.72768 5.79857 -27.9164 3.07856 -5.52967 -44.3461 10.1969 29.6909 22.045 -8.02637 -109.025 -13.0964 0.774809 -6.74223 21.7354 4.96507 14.0369 26.3937 -21.9346 13.8829 -17.0189 -5.0674 106.096 -0.263185 -0.0127602 5.5515 -2.74463 -47.2715 -2.12113 -180 69.9298 174.59 28.7789 -9.59715 2.46764 1.6307 -19.5106 -4.34751 1.18011 -9.79827 1.02898 -1.4184e-008 47.6332 5.74652 -20.6465 -30.9673 -5.77723 5.81991 -23.2886 -6.21976 
91.7103 89.1332 100.979 -8.93115 1.24981 38.5532 0 0 0 14.809 12.7631 6.02614 -12.8988 -0.048071 9.64177 2.36888 -24.8834 -0.955711 -5.75121 8.15766 0.977922 -24.6626 2.95966 -6.06088 -39.0842 15.3806 36.6667 21.8497 -9.36344 -112.085 -12.3198 0.798455 -7.38798 16.6301 4.16097 14.1811 30.0907 -28.1369 13.4646 -13.6572 -5.4365 111.302 -1.90164 -0.0877616 5.28422 -9.17735 -51.5357 -4.47148 -180 85.927 175.518 28.0795 -9.16374 2.29612 1.59624 -22.4113 -1.28565 -1.44742 3.15075 -0.656757 2.05533e-007 35.4543 6.7125 -20.5883 -17.3008 -3.16555 8.49646 -33.9858 -5.41274 
99.1239 91.9805 111.729 -6.08988 3.37506 42.0587 0 0 0 12.824 12.0688 8.62444 -16.7478 -0.757572 12.6408 4.35318 -25.7718 -5.57595 -5.11295 12.4138 -3.04779 -19.2596 2.7074 -6.96898 -37.47 18.4569 41.2576 19.8466 -9.65478 -114.922 -13.9817 0.955244 -7.77835 14.7038 4.03748 15.0446 28.1589 -30.7803 7.99621 -10.593 -5.02266 115.086 -4.3877 -0.199075 5.19305 -16.0231 -50.1469 -8.07178 -1.2257e-007 72.5203 -5.05418 27.4131 -9.48481 2.31827 1.64244 -20.0495 -4.2588 -2.97004 15.7809 -5.1152 -1.70165 21.0325 11.7764 -14.4749 1.96237 0.249233 9.09692 -33.8135 -2.17551 
106.734 93.6901 122.636 -5.22591 4.7863 44.8769 0 0 0 12.3728 8.81172 11.09 -19.9318 1.27028 15.4624 6.02338 -27.7483 -8.93073 -3.74298 15.8157 -6.29788 -12.3646 2.26374 -8.09184 -39.3632 19.0453 42.1275 22.1019 -11.7561 -116.644 -11.8918 1.01483 -9.72084 12.6873 3.33841 13.2826 30.0018 -28.0784 8.90224 -9.79244 -4.94724 116.549 -1.68544 -0.10076 6.84198 -17.684 -46.448 -6.78084 -9.04748e-008 50.3323 -9.53004 25.3471 -7.83447 1.76439 1.47772 -18.2392 -2.96151 -1.82207 23.2851 -9.1366 -1.96344 16.4964 16.4492 -17.1382 9.73828 1.47086 3.02412 -10.4949 -6.79129 
